<svg width="250" height="288" viewBox="0 0 250 288" fill="none" xmlns="http://www.w3.org/2000/svg">
<path d="M142.338 161.895C124.149 153.444 106.753 123.576 106.753 99.2171C106.753 89.8482 108.329 80.7603 111.479 71.9535L106.475 66.8942L32.2484 141.939L89.5171 251.837H160.13C164.949 251.837 169.119 253.617 172.64 257.177C176.161 260.738 177.922 265.001 177.922 269.966C177.922 274.932 176.161 279.148 172.64 282.614C169.119 286.081 164.949 287.814 160.13 287.814H17.7922C12.9735 287.814 8.80344 286.081 5.28206 282.614C1.76069 279.148 0 274.932 0 269.966C0 265.001 1.76069 260.738 5.28206 257.177C8.80344 253.617 12.9735 251.837 17.7922 251.837H69.5008L18.9042 155.431L15.2902 159.085C13.6222 160.958 11.5371 161.895 9.03511 161.895C6.53308 161.895 4.40172 161.005 2.64103 159.225C0.880344 157.445 0 155.29 0 152.761C0 150.231 0.83401 148.123 2.50203 146.437L10.2861 138.567L1.39002 121.421C0.0926678 119.36 -0.231669 117.112 0.417005 114.676C1.06568 112.24 2.4557 110.366 4.58705 109.054C6.71841 107.743 8.94244 107.415 11.2591 108.071C13.5758 108.727 15.3828 110.179 16.6802 112.427L23.3523 125.356L94.5211 53.684C90.0731 46.9384 88.2197 39.4432 88.961 31.1986C89.7024 22.9539 92.9458 15.9272 98.6912 10.1185C105.363 3.37282 113.425 0 122.877 0C132.33 0 140.392 3.37282 147.064 10.1185L159.852 23.0476C168.748 19.8622 177.737 18.2694 186.818 18.2694C211.097 18.2694 237.649 39.718 249.091 54.2462C260.533 68.7744 160.526 170.347 142.338 161.895Z" fill="#C0432D"/>
</svg>
