<svg width="200" height="200" viewBox="0 0 200 200" fill="none" xmlns="http://www.w3.org/2000/svg">
<path d="M79.6875 159.362H114.062V127.087H79.6875V159.362V159.362ZM96.875 176.038C108.712 176.038 112.394 169.619 113.544 165.625H80.2062C81.3562 169.625 85.0375 176.038 96.875 176.038V176.038ZM96.875 17.7062C85.2718 17.7062 74.1438 22.3156 65.9391 30.5203C57.7344 38.725 53.125 49.853 53.125 61.4562C53.125 85.5812 77.7812 92.3125 79.5187 120.831H87.4562C87.4062 120.669 87.3125 120.519 87.2812 120.331L74.7812 51.6C74.6636 50.8653 74.8109 50.1128 75.1968 49.4767C75.5828 48.8406 76.1822 48.3623 76.8881 48.1272C77.594 47.8922 78.3605 47.9156 79.0507 48.1934C79.7409 48.4712 80.31 48.9852 80.6562 49.6437L84.1125 56.5562L87.5687 49.6375C87.8292 49.1208 88.228 48.6865 88.7207 48.383C89.2134 48.0796 89.7807 47.9189 90.3594 47.9189C90.938 47.9189 91.5053 48.0796 91.998 48.383C92.4908 48.6865 92.8896 49.1208 93.15 49.6375L96.6062 56.55L100.062 49.6312C100.32 49.1107 100.717 48.6724 101.21 48.366C101.704 48.0596 102.273 47.8972 102.853 47.8972C103.434 47.8972 104.003 48.0596 104.496 48.366C104.989 48.6724 105.387 49.1107 105.644 49.6312L109.106 56.5437L112.562 49.625C112.905 48.9637 113.473 48.4466 114.163 48.1668C114.853 47.887 115.621 47.8629 116.327 48.0989C117.034 48.3349 117.632 48.8154 118.016 49.4539C118.399 50.0923 118.542 50.8468 118.419 51.5812L105.919 120.319C105.894 120.506 105.794 120.65 105.744 120.806H114.212C115.95 92.2938 140.612 85.5563 140.612 61.4313C140.612 37.2812 121.025 17.6812 96.8625 17.6812L96.875 17.7062ZM109.112 66.6625C108.534 66.6648 107.966 66.505 107.473 66.2012C106.981 65.8975 106.583 65.4619 106.325 64.9437L102.862 58.0375L99.4062 64.95C99.1434 65.4663 98.743 65.8999 98.2492 66.203C97.7554 66.5061 97.1875 66.6668 96.6082 66.6675C96.0288 66.6681 95.4605 66.5087 94.9661 66.2067C94.4716 65.9047 94.0702 65.472 93.8062 64.9562L90.35 58.05L86.8937 64.9625C86.6368 65.4818 86.2394 65.9187 85.7467 66.2236C85.254 66.5285 84.6857 66.6892 84.1062 66.6875H83.875L92.9687 116.687H100.262L109.35 66.6875H109.112V66.6625Z" fill="white"/>
</svg>
