<svg width="88" height="160" viewBox="0 0 88 160" fill="none" xmlns="http://www.w3.org/2000/svg">
<path d="M26.6875 142.362H61.0625V110.087H26.6875V142.362V142.362ZM43.875 159.038C55.7125 159.038 59.3937 152.619 60.5437 148.625H27.2062C28.3562 152.625 32.0375 159.038 43.875 159.038V159.038ZM43.875 0.706244C32.2718 0.706244 21.1438 5.31561 12.9391 13.5203C4.73436 21.725 0.125 32.853 0.125 44.4562C0.125 68.5812 24.7812 75.3125 26.5187 103.831H34.4562C34.4062 103.669 34.3125 103.519 34.2812 103.331L21.7812 34.6C21.6636 33.8653 21.8109 33.1128 22.1968 32.4767C22.5828 31.8406 23.1822 31.3623 23.8881 31.1272C24.594 30.8922 25.3605 30.9156 26.0507 31.1934C26.7409 31.4712 27.31 31.9852 27.6562 32.6437L31.1125 39.5562L34.5687 32.6375C34.8292 32.1208 35.228 31.6865 35.7207 31.383C36.2134 31.0796 36.7807 30.9189 37.3594 30.9189C37.938 30.9189 38.5053 31.0796 38.998 31.383C39.4908 31.6865 39.8896 32.1208 40.15 32.6375L43.6062 39.55L47.0625 32.6312C47.3196 32.1107 47.7172 31.6724 48.2104 31.366C48.7035 31.0596 49.2725 30.8972 49.8531 30.8972C50.4337 30.8972 51.0027 31.0596 51.4959 31.366C51.989 31.6724 52.3866 32.1107 52.6437 32.6312L56.1063 39.5437L59.5625 32.625C59.9052 31.9637 60.4728 31.4466 61.163 31.1668C61.8533 30.887 62.6207 30.8629 63.3271 31.0989C64.0336 31.3349 64.6325 31.8154 65.016 32.4539C65.3994 33.0923 65.5423 33.8468 65.4187 34.5812L52.9187 103.319C52.8937 103.506 52.7937 103.65 52.7437 103.806H61.2125C62.95 75.2938 87.6125 68.5563 87.6125 44.4313C87.6125 20.2812 68.025 0.681244 43.8625 0.681244L43.875 0.706244ZM56.1125 49.6625C55.5337 49.6648 54.9659 49.505 54.4733 49.2012C53.9806 48.8975 53.5829 48.4619 53.325 47.9437L49.8625 41.0375L46.4062 47.95C46.1434 48.4663 45.743 48.8999 45.2492 49.203C44.7554 49.5061 44.1875 49.6668 43.6082 49.6675C43.0288 49.6681 42.4605 49.5087 41.9661 49.2067C41.4716 48.9047 41.0702 48.472 40.8062 47.9562L37.35 41.05L33.8937 47.9625C33.6368 48.4818 33.2394 48.9187 32.7467 49.2236C32.254 49.5285 31.6857 49.6892 31.1062 49.6875H30.875L39.9687 99.6875H47.2625L56.35 49.6875H56.1125V49.6625Z" fill="white"/>
</svg>
