<svg width="40" height="20" viewBox="0 0 40 20" fill="none" xmlns="http://www.w3.org/2000/svg">
<path d="M10 20L30 20C32.6522 20 35.1957 18.9464 37.0711 17.0711C38.9464 15.1957 40 12.6522 40 10C40 7.34784 38.9464 4.8043 37.0711 2.92893C35.1957 1.05357 32.6522 0 30 0L10 0C7.34784 0 4.8043 1.05357 2.92893 2.92893C1.05357 4.8043 0 7.34784 0 10C0 12.6522 1.05357 15.1957 2.92893 17.0711C4.8043 18.9464 7.34784 20 10 20V20ZM30 4C31.5913 4 33.1174 4.63214 34.2426 5.75736C35.3679 6.88258 36 8.4087 36 10C36 11.5913 35.3679 13.1174 34.2426 14.2426C33.1174 15.3679 31.5913 16 30 16C28.4087 16 26.8826 15.3679 25.7574 14.2426C24.6321 13.1174 24 11.5913 24 10C24 8.4087 24.6321 6.88258 25.7574 5.75736C26.8826 4.63214 28.4087 4 30 4Z" fill="#C0432D"/>
</svg>
