<svg width="891" height="872" viewBox="0 0 891 872" fill="none" xmlns="http://www.w3.org/2000/svg">
<path d="M374.677 5.39594C390 5.39611 424.677 -4.60406 522.677 5.39594C614.677 17.4556 750.612 83.6558 802.677 127.396C842.677 161 854 207 866.677 243.396C880.367 282.697 890.677 363.396 890.677 443.396C890.677 523.396 874.677 553.396 842.677 631.396C810.677 709.396 808.677 681.396 774.677 743.396C740.677 805.396 618.677 871.396 486.677 871.396C354.677 871.396 310.677 825.396 262.677 801.396C214.677 777.396 168.677 769.396 98.6772 723.396C28.6772 677.396 46.6772 643.396 14.6772 575.396C-17.3228 507.396 12.6772 469.396 14.6772 395.396C16.6772 321.396 46.6772 307.396 70.6772 243.396C94.6772 179.396 110.677 165.396 138.677 127.396C166.677 89.3959 202.677 89.396 248.677 57.396C294.677 25.396 318.215 5.39531 374.677 5.39594Z" fill="#D7ECFF"/>
</svg>
